<mxfile host="app.diagrams.net" modified="2023-02-09T07:39:25.095Z" agent="5.0 (X11)" etag="ST53LOP9APehRHUgl_Uz" version="20.8.18" type="github">
  <diagram id="C5RBs43oDa-KdzZeNtuy" name="Page-1">
    <mxGraphModel dx="957" dy="811" grid="1" gridSize="10" guides="1" tooltips="1" connect="1" arrows="1" fold="1" page="1" pageScale="1" pageWidth="827" pageHeight="1169" math="0" shadow="0">
      <root>
        <mxCell id="WIyWlLk6GJQsqaUBKTNV-0" />
        <mxCell id="WIyWlLk6GJQsqaUBKTNV-1" parent="WIyWlLk6GJQsqaUBKTNV-0" />
        <mxCell id="uVaprLE8e8_M3dKKwn0Q-1" value="User" style="swimlane;horizontal=0;whiteSpace=wrap;html=1;" vertex="1" parent="WIyWlLk6GJQsqaUBKTNV-1">
          <mxGeometry x="50" y="100" width="910" height="200" as="geometry" />
        </mxCell>
        <mxCell id="uVaprLE8e8_M3dKKwn0Q-3" value="User choose login" style="shape=ellipse;html=1;fillColor=strokeColor;strokeWidth=2;verticalLabelPosition=bottom;verticalAlignment=top;perimeter=ellipsePerimeter;" vertex="1" parent="uVaprLE8e8_M3dKKwn0Q-1">
          <mxGeometry x="80" y="70" width="40" height="40" as="geometry" />
        </mxCell>
        <mxCell id="uVaprLE8e8_M3dKKwn0Q-32" value="" style="ellipse;html=1;shape=endState;fillColor=#000000;strokeColor=#ff0000;strokeWidth=2;fontFamily=Helvetica;fontSize=12;fontColor=default;" vertex="1" parent="uVaprLE8e8_M3dKKwn0Q-1">
          <mxGeometry x="860" y="70" width="30" height="30" as="geometry" />
        </mxCell>
        <mxCell id="uVaprLE8e8_M3dKKwn0Q-40" value="give username and password" style="rounded=1;whiteSpace=wrap;html=1;strokeWidth=2;fontFamily=Helvetica;fontSize=12;" vertex="1" parent="uVaprLE8e8_M3dKKwn0Q-1">
          <mxGeometry x="244" y="70" width="120" height="60" as="geometry" />
        </mxCell>
        <mxCell id="uVaprLE8e8_M3dKKwn0Q-6" value="&lt;div&gt;LoginController&lt;/div&gt;" style="swimlane;horizontal=0;whiteSpace=wrap;html=1;" vertex="1" parent="WIyWlLk6GJQsqaUBKTNV-1">
          <mxGeometry x="50" y="310" width="910" height="360" as="geometry" />
        </mxCell>
        <mxCell id="uVaprLE8e8_M3dKKwn0Q-38" style="rounded=0;orthogonalLoop=1;jettySize=auto;html=1;dashed=1;strokeWidth=1;fontFamily=Helvetica;fontSize=12;fontColor=default;edgeStyle=orthogonalEdgeStyle;" edge="1" parent="uVaprLE8e8_M3dKKwn0Q-6" source="uVaprLE8e8_M3dKKwn0Q-11" target="uVaprLE8e8_M3dKKwn0Q-37">
          <mxGeometry relative="1" as="geometry">
            <Array as="points">
              <mxPoint x="110" y="100" />
            </Array>
          </mxGeometry>
        </mxCell>
        <mxCell id="uVaprLE8e8_M3dKKwn0Q-39" value="No" style="edgeLabel;html=1;align=center;verticalAlign=middle;resizable=0;points=[];fontSize=12;fontFamily=Helvetica;fontColor=default;" vertex="1" connectable="0" parent="uVaprLE8e8_M3dKKwn0Q-38">
          <mxGeometry x="-0.5" y="1" relative="1" as="geometry">
            <mxPoint as="offset" />
          </mxGeometry>
        </mxCell>
        <mxCell id="uVaprLE8e8_M3dKKwn0Q-11" value="Has Session key?" style="rhombus;whiteSpace=wrap;html=1;strokeWidth=2;fontFamily=Helvetica;fontSize=12;" vertex="1" parent="uVaprLE8e8_M3dKKwn0Q-6">
          <mxGeometry x="430" y="30" width="80" height="80" as="geometry" />
        </mxCell>
        <mxCell id="uVaprLE8e8_M3dKKwn0Q-13" value="Promp Login Success" style="rounded=1;whiteSpace=wrap;html=1;strokeWidth=2;fontFamily=Helvetica;fontSize=12;" vertex="1" parent="uVaprLE8e8_M3dKKwn0Q-6">
          <mxGeometry x="770" y="40" width="120" height="60" as="geometry" />
        </mxCell>
        <mxCell id="uVaprLE8e8_M3dKKwn0Q-35" style="rounded=0;orthogonalLoop=1;jettySize=auto;html=1;dashed=1;strokeWidth=1;fontFamily=Helvetica;fontSize=12;fontColor=default;entryX=0.5;entryY=0;entryDx=0;entryDy=0;edgeStyle=orthogonalEdgeStyle;" edge="1" parent="uVaprLE8e8_M3dKKwn0Q-6" source="uVaprLE8e8_M3dKKwn0Q-23" target="uVaprLE8e8_M3dKKwn0Q-11">
          <mxGeometry relative="1" as="geometry">
            <mxPoint x="176" y="130" as="targetPoint" />
            <Array as="points">
              <mxPoint x="370" y="50" />
              <mxPoint x="370" y="10" />
              <mxPoint x="470" y="10" />
            </Array>
          </mxGeometry>
        </mxCell>
        <mxCell id="uVaprLE8e8_M3dKKwn0Q-23" value="Check Browser localstorage for session key" style="rounded=1;whiteSpace=wrap;html=1;strokeWidth=2;fontFamily=Helvetica;fontSize=12;" vertex="1" parent="uVaprLE8e8_M3dKKwn0Q-6">
          <mxGeometry x="50" y="20" width="120" height="60" as="geometry" />
        </mxCell>
        <mxCell id="uVaprLE8e8_M3dKKwn0Q-37" value="Display login form" style="rounded=1;whiteSpace=wrap;html=1;strokeWidth=2;fontFamily=Helvetica;fontSize=12;" vertex="1" parent="uVaprLE8e8_M3dKKwn0Q-6">
          <mxGeometry x="50" y="130" width="120" height="60" as="geometry" />
        </mxCell>
        <mxCell id="uVaprLE8e8_M3dKKwn0Q-46" style="edgeStyle=orthogonalEdgeStyle;rounded=0;orthogonalLoop=1;jettySize=auto;html=1;entryX=0.5;entryY=0;entryDx=0;entryDy=0;dashed=1;strokeWidth=1;fontFamily=Helvetica;fontSize=12;fontColor=default;" edge="1" parent="uVaprLE8e8_M3dKKwn0Q-6" source="uVaprLE8e8_M3dKKwn0Q-42" target="uVaprLE8e8_M3dKKwn0Q-44">
          <mxGeometry relative="1" as="geometry" />
        </mxCell>
        <mxCell id="uVaprLE8e8_M3dKKwn0Q-42" value="check null" style="rounded=1;whiteSpace=wrap;html=1;strokeWidth=2;fontFamily=Helvetica;fontSize=12;" vertex="1" parent="uVaprLE8e8_M3dKKwn0Q-6">
          <mxGeometry x="244" y="140" width="120" height="60" as="geometry" />
        </mxCell>
        <mxCell id="uVaprLE8e8_M3dKKwn0Q-48" style="edgeStyle=orthogonalEdgeStyle;rounded=0;orthogonalLoop=1;jettySize=auto;html=1;entryX=0.5;entryY=1;entryDx=0;entryDy=0;dashed=1;strokeWidth=1;fontFamily=Helvetica;fontSize=12;fontColor=default;" edge="1" parent="uVaprLE8e8_M3dKKwn0Q-6" source="uVaprLE8e8_M3dKKwn0Q-44" target="uVaprLE8e8_M3dKKwn0Q-47">
          <mxGeometry relative="1" as="geometry" />
        </mxCell>
        <mxCell id="uVaprLE8e8_M3dKKwn0Q-49" value="Yes" style="edgeLabel;html=1;align=center;verticalAlign=middle;resizable=0;points=[];fontSize=12;fontFamily=Helvetica;fontColor=default;" vertex="1" connectable="0" parent="uVaprLE8e8_M3dKKwn0Q-48">
          <mxGeometry x="-0.3263" y="-1" relative="1" as="geometry">
            <mxPoint as="offset" />
          </mxGeometry>
        </mxCell>
        <mxCell id="uVaprLE8e8_M3dKKwn0Q-44" value="Any field null?" style="rhombus;whiteSpace=wrap;html=1;strokeWidth=2;fontFamily=Helvetica;fontSize=12;" vertex="1" parent="uVaprLE8e8_M3dKKwn0Q-6">
          <mxGeometry x="380" y="210" width="80" height="80" as="geometry" />
        </mxCell>
        <mxCell id="uVaprLE8e8_M3dKKwn0Q-47" value="Promp information is invalid" style="rounded=1;whiteSpace=wrap;html=1;strokeWidth=2;fontFamily=Helvetica;fontSize=12;" vertex="1" parent="uVaprLE8e8_M3dKKwn0Q-6">
          <mxGeometry x="630" y="40" width="120" height="60" as="geometry" />
        </mxCell>
        <mxCell id="uVaprLE8e8_M3dKKwn0Q-17" value="LoginHistoryController" style="swimlane;horizontal=0;whiteSpace=wrap;html=1;" vertex="1" parent="WIyWlLk6GJQsqaUBKTNV-1">
          <mxGeometry x="50" y="680" width="910" height="200" as="geometry" />
        </mxCell>
        <mxCell id="uVaprLE8e8_M3dKKwn0Q-22" value="Append new Login session to Session DB" style="rounded=1;whiteSpace=wrap;html=1;strokeWidth=2;fontFamily=Helvetica;fontSize=12;" vertex="1" parent="uVaprLE8e8_M3dKKwn0Q-17">
          <mxGeometry x="670" y="50" width="120" height="60" as="geometry" />
        </mxCell>
        <mxCell id="uVaprLE8e8_M3dKKwn0Q-66" style="edgeStyle=orthogonalEdgeStyle;rounded=0;orthogonalLoop=1;jettySize=auto;html=1;entryX=0;entryY=0.5;entryDx=0;entryDy=0;dashed=1;strokeWidth=1;fontFamily=Helvetica;fontSize=12;fontColor=default;" edge="1" parent="uVaprLE8e8_M3dKKwn0Q-17" source="uVaprLE8e8_M3dKKwn0Q-60" target="uVaprLE8e8_M3dKKwn0Q-22">
          <mxGeometry relative="1" as="geometry">
            <Array as="points">
              <mxPoint x="600" y="80" />
            </Array>
          </mxGeometry>
        </mxCell>
        <mxCell id="uVaprLE8e8_M3dKKwn0Q-67" style="edgeStyle=orthogonalEdgeStyle;rounded=0;orthogonalLoop=1;jettySize=auto;html=1;entryX=1;entryY=0.5;entryDx=0;entryDy=0;dashed=1;strokeWidth=1;fontFamily=Helvetica;fontSize=12;fontColor=default;" edge="1" parent="uVaprLE8e8_M3dKKwn0Q-17" source="uVaprLE8e8_M3dKKwn0Q-60" target="uVaprLE8e8_M3dKKwn0Q-63">
          <mxGeometry relative="1" as="geometry">
            <Array as="points">
              <mxPoint x="520" y="80" />
            </Array>
          </mxGeometry>
        </mxCell>
        <mxCell id="uVaprLE8e8_M3dKKwn0Q-60" value="" style="line;strokeWidth=4;html=1;perimeter=backbonePerimeter;points=[];outlineConnect=0;strokeColor=default;fontFamily=Helvetica;fontSize=12;fontColor=default;fillColor=strokeColor;" vertex="1" parent="uVaprLE8e8_M3dKKwn0Q-17">
          <mxGeometry x="470" y="180" width="160" height="10" as="geometry" />
        </mxCell>
        <mxCell id="uVaprLE8e8_M3dKKwn0Q-63" value="Append new Login success history to Login_History DB" style="rounded=1;whiteSpace=wrap;html=1;strokeWidth=2;fontFamily=Helvetica;fontSize=12;" vertex="1" parent="uVaprLE8e8_M3dKKwn0Q-17">
          <mxGeometry x="364" y="50" width="120" height="60" as="geometry" />
        </mxCell>
        <mxCell id="uVaprLE8e8_M3dKKwn0Q-68" value="Append new Login fail history to Login_History DB" style="rounded=1;whiteSpace=wrap;html=1;strokeWidth=2;fontFamily=Helvetica;fontSize=12;" vertex="1" parent="uVaprLE8e8_M3dKKwn0Q-17">
          <mxGeometry x="220" y="50" width="120" height="60" as="geometry" />
        </mxCell>
        <mxCell id="uVaprLE8e8_M3dKKwn0Q-28" value="UserController" style="swimlane;horizontal=0;whiteSpace=wrap;html=1;" vertex="1" parent="WIyWlLk6GJQsqaUBKTNV-1">
          <mxGeometry x="50" y="890" width="910" height="200" as="geometry" />
        </mxCell>
        <mxCell id="uVaprLE8e8_M3dKKwn0Q-29" value="Get User ID and Role" style="rounded=1;whiteSpace=wrap;html=1;strokeWidth=2;fontFamily=Helvetica;fontSize=12;" vertex="1" parent="uVaprLE8e8_M3dKKwn0Q-28">
          <mxGeometry x="590" y="50" width="120" height="60" as="geometry" />
        </mxCell>
        <mxCell id="uVaprLE8e8_M3dKKwn0Q-55" style="edgeStyle=orthogonalEdgeStyle;rounded=0;orthogonalLoop=1;jettySize=auto;html=1;dashed=1;strokeWidth=1;fontFamily=Helvetica;fontSize=12;fontColor=default;" edge="1" parent="uVaprLE8e8_M3dKKwn0Q-28" source="uVaprLE8e8_M3dKKwn0Q-51" target="uVaprLE8e8_M3dKKwn0Q-54">
          <mxGeometry relative="1" as="geometry" />
        </mxCell>
        <mxCell id="uVaprLE8e8_M3dKKwn0Q-51" value="Check username and password" style="rounded=1;whiteSpace=wrap;html=1;strokeWidth=2;fontFamily=Helvetica;fontSize=12;" vertex="1" parent="uVaprLE8e8_M3dKKwn0Q-28">
          <mxGeometry x="140" y="60" width="120" height="60" as="geometry" />
        </mxCell>
        <mxCell id="uVaprLE8e8_M3dKKwn0Q-54" value="is user information valid?" style="rhombus;whiteSpace=wrap;html=1;strokeWidth=2;fontFamily=Helvetica;fontSize=12;" vertex="1" parent="uVaprLE8e8_M3dKKwn0Q-28">
          <mxGeometry x="330" y="50" width="80" height="80" as="geometry" />
        </mxCell>
        <mxCell id="uVaprLE8e8_M3dKKwn0Q-30" style="edgeStyle=orthogonalEdgeStyle;rounded=0;orthogonalLoop=1;jettySize=auto;html=1;dashed=1;strokeWidth=1;fontFamily=Helvetica;fontSize=12;fontColor=default;" edge="1" parent="WIyWlLk6GJQsqaUBKTNV-1" source="uVaprLE8e8_M3dKKwn0Q-22" target="uVaprLE8e8_M3dKKwn0Q-29">
          <mxGeometry relative="1" as="geometry" />
        </mxCell>
        <mxCell id="uVaprLE8e8_M3dKKwn0Q-33" style="edgeStyle=orthogonalEdgeStyle;rounded=0;orthogonalLoop=1;jettySize=auto;html=1;entryX=0.5;entryY=1;entryDx=0;entryDy=0;dashed=1;strokeWidth=1;fontFamily=Helvetica;fontSize=12;fontColor=default;" edge="1" parent="WIyWlLk6GJQsqaUBKTNV-1" source="uVaprLE8e8_M3dKKwn0Q-13" target="uVaprLE8e8_M3dKKwn0Q-32">
          <mxGeometry relative="1" as="geometry" />
        </mxCell>
        <mxCell id="uVaprLE8e8_M3dKKwn0Q-15" style="rounded=0;orthogonalLoop=1;jettySize=auto;html=1;fontFamily=Helvetica;fontSize=12;fontColor=default;dashed=1;entryX=0.5;entryY=0;entryDx=0;entryDy=0;edgeStyle=orthogonalEdgeStyle;exitX=1;exitY=0.5;exitDx=0;exitDy=0;" edge="1" parent="WIyWlLk6GJQsqaUBKTNV-1" source="uVaprLE8e8_M3dKKwn0Q-11" target="uVaprLE8e8_M3dKKwn0Q-22">
          <mxGeometry relative="1" as="geometry">
            <mxPoint x="340" y="421.17647058823536" as="targetPoint" />
            <Array as="points">
              <mxPoint x="560" y="470" />
              <mxPoint x="780" y="470" />
            </Array>
          </mxGeometry>
        </mxCell>
        <mxCell id="uVaprLE8e8_M3dKKwn0Q-16" value="Yes" style="edgeLabel;html=1;align=center;verticalAlign=middle;resizable=0;points=[];fontSize=12;fontFamily=Helvetica;fontColor=default;" vertex="1" connectable="0" parent="uVaprLE8e8_M3dKKwn0Q-15">
          <mxGeometry x="0.2125" y="-3" relative="1" as="geometry">
            <mxPoint as="offset" />
          </mxGeometry>
        </mxCell>
        <mxCell id="uVaprLE8e8_M3dKKwn0Q-43" style="edgeStyle=orthogonalEdgeStyle;rounded=0;orthogonalLoop=1;jettySize=auto;html=1;entryX=0.5;entryY=0;entryDx=0;entryDy=0;dashed=1;strokeWidth=1;fontFamily=Helvetica;fontSize=12;fontColor=default;" edge="1" parent="WIyWlLk6GJQsqaUBKTNV-1" source="uVaprLE8e8_M3dKKwn0Q-40" target="uVaprLE8e8_M3dKKwn0Q-42">
          <mxGeometry relative="1" as="geometry" />
        </mxCell>
        <mxCell id="uVaprLE8e8_M3dKKwn0Q-52" style="edgeStyle=orthogonalEdgeStyle;rounded=0;orthogonalLoop=1;jettySize=auto;html=1;dashed=1;strokeWidth=1;fontFamily=Helvetica;fontSize=12;fontColor=default;" edge="1" parent="WIyWlLk6GJQsqaUBKTNV-1" source="uVaprLE8e8_M3dKKwn0Q-44" target="uVaprLE8e8_M3dKKwn0Q-51">
          <mxGeometry relative="1" as="geometry" />
        </mxCell>
        <mxCell id="uVaprLE8e8_M3dKKwn0Q-53" value="No" style="edgeLabel;html=1;align=center;verticalAlign=middle;resizable=0;points=[];fontSize=12;fontFamily=Helvetica;fontColor=default;" vertex="1" connectable="0" parent="uVaprLE8e8_M3dKKwn0Q-52">
          <mxGeometry x="-0.5719" y="5" relative="1" as="geometry">
            <mxPoint as="offset" />
          </mxGeometry>
        </mxCell>
        <mxCell id="uVaprLE8e8_M3dKKwn0Q-57" style="edgeStyle=orthogonalEdgeStyle;rounded=0;orthogonalLoop=1;jettySize=auto;html=1;dashed=1;strokeWidth=1;fontFamily=Helvetica;fontSize=12;fontColor=default;" edge="1" parent="WIyWlLk6GJQsqaUBKTNV-1" source="uVaprLE8e8_M3dKKwn0Q-54" target="uVaprLE8e8_M3dKKwn0Q-60">
          <mxGeometry relative="1" as="geometry" />
        </mxCell>
        <mxCell id="uVaprLE8e8_M3dKKwn0Q-58" value="Yes" style="edgeLabel;html=1;align=center;verticalAlign=middle;resizable=0;points=[];fontSize=12;fontFamily=Helvetica;fontColor=default;" vertex="1" connectable="0" parent="uVaprLE8e8_M3dKKwn0Q-57">
          <mxGeometry x="0.3073" y="2" relative="1" as="geometry">
            <mxPoint as="offset" />
          </mxGeometry>
        </mxCell>
        <mxCell id="uVaprLE8e8_M3dKKwn0Q-69" style="edgeStyle=orthogonalEdgeStyle;rounded=0;orthogonalLoop=1;jettySize=auto;html=1;entryX=0.5;entryY=1;entryDx=0;entryDy=0;dashed=1;strokeWidth=1;fontFamily=Helvetica;fontSize=12;fontColor=default;" edge="1" parent="WIyWlLk6GJQsqaUBKTNV-1" source="uVaprLE8e8_M3dKKwn0Q-54" target="uVaprLE8e8_M3dKKwn0Q-68">
          <mxGeometry relative="1" as="geometry" />
        </mxCell>
        <mxCell id="uVaprLE8e8_M3dKKwn0Q-70" value="No" style="edgeLabel;html=1;align=center;verticalAlign=middle;resizable=0;points=[];fontSize=12;fontFamily=Helvetica;fontColor=default;" vertex="1" connectable="0" parent="uVaprLE8e8_M3dKKwn0Q-69">
          <mxGeometry x="-0.2667" relative="1" as="geometry">
            <mxPoint as="offset" />
          </mxGeometry>
        </mxCell>
        <mxCell id="uVaprLE8e8_M3dKKwn0Q-71" style="edgeStyle=orthogonalEdgeStyle;rounded=0;orthogonalLoop=1;jettySize=auto;html=1;entryX=0.25;entryY=1;entryDx=0;entryDy=0;dashed=1;strokeWidth=1;fontFamily=Helvetica;fontSize=12;fontColor=default;" edge="1" parent="WIyWlLk6GJQsqaUBKTNV-1" source="uVaprLE8e8_M3dKKwn0Q-68" target="uVaprLE8e8_M3dKKwn0Q-47">
          <mxGeometry relative="1" as="geometry">
            <Array as="points">
              <mxPoint x="330" y="620" />
              <mxPoint x="710" y="620" />
            </Array>
          </mxGeometry>
        </mxCell>
        <mxCell id="uVaprLE8e8_M3dKKwn0Q-72" style="edgeStyle=orthogonalEdgeStyle;rounded=0;orthogonalLoop=1;jettySize=auto;html=1;entryX=0.5;entryY=1;entryDx=0;entryDy=0;dashed=1;strokeWidth=1;fontFamily=Helvetica;fontSize=12;fontColor=default;" edge="1" parent="WIyWlLk6GJQsqaUBKTNV-1" source="uVaprLE8e8_M3dKKwn0Q-29" target="uVaprLE8e8_M3dKKwn0Q-13">
          <mxGeometry relative="1" as="geometry" />
        </mxCell>
        <mxCell id="uVaprLE8e8_M3dKKwn0Q-73" style="edgeStyle=orthogonalEdgeStyle;rounded=0;orthogonalLoop=1;jettySize=auto;html=1;entryX=0;entryY=0.5;entryDx=0;entryDy=0;dashed=1;strokeWidth=1;fontFamily=Helvetica;fontSize=12;fontColor=default;" edge="1" parent="WIyWlLk6GJQsqaUBKTNV-1" source="uVaprLE8e8_M3dKKwn0Q-37" target="uVaprLE8e8_M3dKKwn0Q-40">
          <mxGeometry relative="1" as="geometry" />
        </mxCell>
        <mxCell id="uVaprLE8e8_M3dKKwn0Q-74" style="edgeStyle=orthogonalEdgeStyle;rounded=0;orthogonalLoop=1;jettySize=auto;html=1;entryX=0.5;entryY=0;entryDx=0;entryDy=0;dashed=1;strokeWidth=1;fontFamily=Helvetica;fontSize=12;fontColor=default;" edge="1" parent="WIyWlLk6GJQsqaUBKTNV-1" source="uVaprLE8e8_M3dKKwn0Q-3" target="uVaprLE8e8_M3dKKwn0Q-23">
          <mxGeometry relative="1" as="geometry" />
        </mxCell>
        <mxCell id="uVaprLE8e8_M3dKKwn0Q-75" style="edgeStyle=orthogonalEdgeStyle;rounded=0;orthogonalLoop=1;jettySize=auto;html=1;entryX=1;entryY=0.5;entryDx=0;entryDy=0;dashed=1;strokeWidth=1;fontFamily=Helvetica;fontSize=12;fontColor=default;" edge="1" parent="WIyWlLk6GJQsqaUBKTNV-1" source="uVaprLE8e8_M3dKKwn0Q-47" target="uVaprLE8e8_M3dKKwn0Q-40">
          <mxGeometry relative="1" as="geometry">
            <Array as="points">
              <mxPoint x="740" y="200" />
            </Array>
          </mxGeometry>
        </mxCell>
      </root>
    </mxGraphModel>
  </diagram>
</mxfile>
